<?xml version="1.0" standalone="no"?><!DOCTYPE svg PUBLIC "-//W3C//DTD SVG 1.1//EN" "http://www.w3.org/Graphics/SVG/1.1/DTD/svg11.dtd"><svg t="1587552168456" class="icon" viewBox="0 0 1024 1024" version="1.1" xmlns="http://www.w3.org/2000/svg" p-id="1177" xmlns:xlink="http://www.w3.org/1999/xlink" width="200" height="200"><defs><style type="text/css"></style></defs><path d="M276.064415 738.817521c-43.192763 0-49.216913-20.198621-48.665683-20.198621L58.958769 920.211374l135.051209-15.316303 74.927828 112.568923s155.328577-195.056469 155.328577-192.851551c-80.951978-2.204918-48.665683-83.590005-148.201968-85.794922z m517.880043-7.087236c-123.632885 13.111386-97.882596 43.153389-126.349659 67.210616a86.936755 86.936755 0 0 1-72.72291 27.837086L785.164161 1024l46.500139-121.270473 132.885664 17.481847-170.605506-188.481089z m-143.831506-0.551229c20.789224-34.963695 51.97306-53.548001 92.960905-53.548001 41.027218 0 61.816442-21.261706 62.328298-62.249552 1.102459-40.987845 18.62368-72.683537 53.587375-93.433387 35.042442-21.30108 43.232136-49.728769 22.994141-85.243693-20.237995-36.02678-20.237995-71.541704 0-107.607858 20.237995-36.066154 12.59953-64.454469-22.994141-85.204319-35.514924-21.340453-53.036145-51.933686-53.548001-93.433387-1.102459-40.948471-21.891683-62.288925-62.367672-62.288925-41.027218-0.551229-72.171681-18.033077-92.960905-53.548001-20.789224-35.475551-49.768142-43.153389-85.32244-22.915395-35.554298 20.198621-71.659825 20.198621-107.174749 0C422.061465-9.082686 393.633776-1.404848 372.293323 34.110077c-20.74985 34.963695-51.97306 53.548001-92.921532 53.548001-41.027218 0.511856-61.816442 21.261706-62.367671 62.249551-1.102459 40.948471-18.033077 72.132307-53.587375 93.433387-35.554298 21.261706-43.192763 49.689395-22.994142 85.20432 20.237995 36.066154 20.237995 71.581078 0 107.647231-20.198621 36.02678-12.560156 64.454469 22.994142 85.20432 35.554298 21.30108 53.036145 51.894313 53.548001 93.433387 1.141832 40.948471 21.891683 62.249551 62.367672 62.249551 41.027218 0.551229 72.211054 18.033077 92.960905 53.548001 20.789224 35.514924 49.768142 43.153389 85.32244 22.954768 35.554298-20.198621 71.659825-20.198621 107.174749 0 35.554298 20.74985 64.57259 13.111386 85.32244-22.403538z m-89.692902-153.517395h-86.976128V273.934249H430.251159V230.78086l86.385526-43.192762h43.783365v390.073563z" fill="#FFCF47" p-id="1178"></path></svg>