<?xml version="1.0" standalone="no"?><!DOCTYPE svg PUBLIC "-//W3C//DTD SVG 1.1//EN" "http://www.w3.org/Graphics/SVG/1.1/DTD/svg11.dtd"><svg t="1587552123764" class="icon" viewBox="0 0 1024 1024" version="1.1" xmlns="http://www.w3.org/2000/svg" p-id="909" xmlns:xlink="http://www.w3.org/1999/xlink" width="200" height="200"><defs><style type="text/css"></style></defs><path d="M337.408 724.48c-40.448 0-46.08-18.944-45.568-18.944l-157.696 188.928 126.464-14.336 70.144 105.472S476.16 802.816 476.16 804.864c-75.776-2.048-45.568-78.336-138.752-80.384zM822.272 717.824c-115.712 12.288-91.648 40.448-118.272 62.976-17.408 18.944-42.496 28.672-68.096 26.112l178.176 184.832 44.032-113.664 124.416 16.384-160.256-176.64zM687.616 717.312c19.456-32.768 48.64-50.176 87.04-50.176 38.4-0.512 57.856-19.968 58.368-58.368s17.408-68.096 50.176-87.552c32.768-19.968 40.448-46.592 21.504-79.872-18.944-33.792-18.944-67.072 0-100.864s11.776-60.416-21.504-79.872c-33.28-19.968-49.664-48.64-50.176-87.552-1.024-38.4-20.48-58.368-58.368-58.368-38.4-0.512-67.584-16.896-87.04-50.176-19.456-33.28-46.592-40.448-79.872-21.504s-67.072 18.944-100.352 0C474.112 23.552 447.488 30.72 427.52 64c-19.456 32.768-48.64 50.176-87.04 50.176-38.4 0.512-57.856 19.968-58.368 58.368-1.024 38.4-16.896 67.584-50.176 87.552-33.28 19.968-40.448 46.592-21.504 79.872 18.944 33.792 18.944 67.072 0 100.864s-11.776 60.416 21.504 79.872c33.28 19.968 49.664 48.64 50.176 87.552 1.024 38.4 20.48 58.368 58.368 58.368 38.4 0.512 67.584 16.896 87.04 50.176 19.456 33.28 46.592 40.448 79.872 21.504s67.072-18.944 100.352 0c33.28 19.456 60.416 12.288 79.872-20.992z m-239.104-143.36v-40.448c0-28.672 23.552-65.024 70.144-109.568l5.12-4.608C570.368 374.784 593.92 337.92 593.92 309.76v-19.968c0.512-10.752-3.584-20.992-10.752-28.672-6.144-7.68-15.872-11.776-25.6-11.776h-36.352c-20.992-0.512-33.28 12.8-34.816 40.448h-36.352C455.68 235.52 480.256 208.384 522.24 208.384h71.68c19.456 0 38.4 8.704 50.688 24.064 13.824 15.872 21.504 36.352 20.992 57.344v19.968c0 28.672-23.04 65.024-70.144 109.568l-5.12 4.608c-46.592 44.544-70.144 79.872-70.144 105.472v4.096H665.6v40.448H448.512z" fill="#FF9017" p-id="910"></path></svg>