<?xml version="1.0" standalone="no"?><!DOCTYPE svg PUBLIC "-//W3C//DTD SVG 1.1//EN" "http://www.w3.org/Graphics/SVG/1.1/DTD/svg11.dtd"><svg t="1587552160737" class="icon" viewBox="0 0 1024 1024" version="1.1" xmlns="http://www.w3.org/2000/svg" p-id="1043" xmlns:xlink="http://www.w3.org/1999/xlink" width="200" height="200"><defs><style type="text/css"></style></defs><path d="M291.84 724.48c-40.448 0-46.08-18.944-46.08-18.944l-157.696 188.928 126.976-14.336 70.144 105.472s145.408-182.784 145.408-180.736c-75.776-2.048-46.08-78.336-138.752-80.384zM641.536 717.312c19.456-32.768 48.64-50.176 87.04-50.176 38.4-0.512 57.856-19.968 58.368-58.368 1.024-38.4 17.408-68.096 50.176-87.552 32.768-19.968 40.448-46.592 21.504-79.872-18.944-33.792-18.944-67.072 0-100.864s11.776-60.416-21.504-79.872c-33.28-19.968-49.664-48.64-50.176-87.552-1.024-38.4-20.48-58.368-58.368-58.368s-67.584-16.896-87.04-50.176-46.592-40.448-79.872-21.504-67.072 18.944-100.352 0C428.032 23.552 401.408 30.72 381.952 64c-19.456 32.768-48.64 50.176-87.04 50.176-38.4 0.512-57.856 19.968-58.368 58.368-1.024 38.4-16.896 67.584-50.176 87.552s-40.448 46.592-21.504 79.872c18.944 33.792 18.944 67.072 0 100.864s-11.776 60.416 21.504 79.872c33.28 19.968 49.664 48.64 50.176 87.552 1.024 38.4 20.48 58.368 58.368 58.368 38.4 0.512 67.584 16.896 87.04 50.176 19.456 33.28 46.592 40.448 79.872 21.504s67.072-18.944 100.352 0 59.904 12.288 79.36-20.992zM548.352 573.44H475.648c-42.496 0-66.56-27.136-72.192-81.408h36.352c1.536 27.136 13.824 40.96 36.352 40.96h36.352c9.728 0 19.456-4.096 25.6-11.776 7.168-8.192 10.752-18.432 10.752-28.672V411.136c0-6.656-3.072-14.848-8.704-25.088-5.12-10.24-15.872-15.872-27.136-15.36H439.808v-40.448l108.544-81.408H403.456v-40.96h217.088v40.448L512 329.728h36.352c20.48 0 39.936 9.728 51.712 26.624 13.312 17.92 20.48 36.352 20.48 54.272V491.52c0.512 20.992-7.168 41.984-20.992 57.856-14.336 15.872-31.232 24.064-51.2 24.064zM776.192 717.824c-115.712 12.288-91.648 40.448-118.272 62.976-17.408 18.944-42.496 28.672-68.096 26.112l178.176 184.832 44.032-113.664 124.416 16.384-160.256-176.64z" fill="#FFC200" p-id="1044"></path></svg>